<svg xmlns="http://www.w3.org/2000/svg" xmlns:xlink="http://www.w3.org/1999/xlink" contentStyleType="text/css" data-diagram-type="CLASS" height="1367px" preserveAspectRatio="none" style="width:1420px;height:1367px;background:#FFFFFF;" version="1.1" viewBox="0 0 1420 1367" width="1420px" zoomAndPan="magnify"><defs/><g><!--class DIRECTION--><g id="elem_DIRECTION"><rect codeLine="2" fill="#F1F1F1" height="96.8906" id="DIRECTION" rx="2.5" ry="2.5" style="stroke:#181818;stroke-width:0.5;" width="109.4307" x="72.39" y="7"/><ellipse cx="87.39" cy="23" fill="#EB937F" rx="11" ry="11" style="stroke:#181818;stroke-width:1;"/><path d="M91.4994,29 L83.7806,29 L83.7806,16.6094 L91.4994,16.6094 L91.4994,18.7656 L86.2338,18.7656 L86.2338,21.4375 L90.9994,21.4375 L90.9994,23.5938 L86.2338,23.5938 L86.2338,26.8438 L91.4994,26.8438 L91.4994,29 Z " fill="#000000"/><text fill="#000000" font-family="sans-serif" font-size="14" lengthAdjust="spacing" textLength="77.4307" x="101.39" y="27.8467">DIRECTION</text><line style="stroke:#181818;stroke-width:0.5;" x1="73.39" x2="180.8207" y1="39" y2="39"/><text fill="#000000" font-family="sans-serif" font-size="14" lengthAdjust="spacing" textLength="18.6895" x="78.39" y="55.9951">UP</text><text fill="#000000" font-family="sans-serif" font-size="14" lengthAdjust="spacing" textLength="46.1152" x="78.39" y="72.292">DOWN</text><text fill="#000000" font-family="sans-serif" font-size="14" lengthAdjust="spacing" textLength="31.5547" x="78.39" y="88.5889">IDLE</text><line style="stroke:#181818;stroke-width:0.5;" x1="73.39" x2="180.8207" y1="95.8906" y2="95.8906"/></g><!--class FLOOR--><g id="elem_FLOOR"><rect codeLine="8" fill="#F1F1F1" height="194.6719" id="FLOOR" rx="2.5" ry="2.5" style="stroke:#181818;stroke-width:0.5;" width="238.9189" x="744.65" y="581.53"/><ellipse cx="836.0499" cy="597.53" fill="#EB937F" rx="11" ry="11" style="stroke:#181818;stroke-width:1;"/><path d="M840.1593,603.53 L832.4405,603.53 L832.4405,591.1394 L840.1593,591.1394 L840.1593,593.2956 L834.8937,593.2956 L834.8937,595.9675 L839.6593,595.9675 L839.6593,598.1238 L834.8937,598.1238 L834.8937,601.3738 L840.1593,601.3738 L840.1593,603.53 Z " fill="#000000"/><text fill="#000000" font-family="sans-serif" font-size="14" lengthAdjust="spacing" textLength="47.6191" x="856.5499" y="602.3767">FLOOR</text><line style="stroke:#181818;stroke-width:0.5;" x1="745.65" x2="982.5689" y1="613.53" y2="613.53"/><ellipse cx="755.65" cy="627.1784" fill="#FFFFFF" fill-opacity="0.00000" rx="3" ry="3" style="stroke:#038048;stroke-width:1;"/><text fill="#000000" font-family="sans-serif" font-size="14" lengthAdjust="spacing" textLength="110.6465" x="764.65" y="630.5251">int floorNumber</text><line style="stroke:#181818;stroke-width:0.5;" x1="745.65" x2="982.5689" y1="637.8269" y2="637.8269"/><text fill="#000000" font-family="sans-serif" font-size="14" lengthAdjust="spacing" textLength="83.3574" x="764.65" y="654.822">FLOOR_0(0)</text><text fill="#000000" font-family="sans-serif" font-size="14" lengthAdjust="spacing" textLength="83.3574" x="764.65" y="671.1189">FLOOR_1(1)</text><text fill="#000000" font-family="sans-serif" font-size="14" lengthAdjust="spacing" textLength="83.3574" x="764.65" y="687.4157">FLOOR_2(2)</text><text fill="#000000" font-family="sans-serif" font-size="14" lengthAdjust="spacing" textLength="83.3574" x="764.65" y="703.7126">FLOOR_3(3)</text><text fill="#000000" font-family="sans-serif" font-size="14" lengthAdjust="spacing" textLength="83.3574" x="764.65" y="720.0095">FLOOR_4(4)</text><text fill="#000000" font-family="sans-serif" font-size="14" lengthAdjust="spacing" textLength="83.3574" x="764.65" y="736.3064">FLOOR_5(5)</text><ellipse cx="755.65" cy="749.2566" fill="#84BE84" rx="3" ry="3" style="stroke:#038048;stroke-width:1;"/><text fill="#000000" font-family="sans-serif" font-size="14" lengthAdjust="spacing" textLength="152.4004" x="764.65" y="752.6032">getFloorNumber(): int</text><ellipse cx="755.65" cy="765.5534" fill="#84BE84" rx="3" ry="3" style="stroke:#038048;stroke-width:1;"/><text fill="#000000" font-family="sans-serif" font-size="14" lengthAdjust="spacing" textLength="212.9189" x="764.65" y="768.9001">getFloor(int floorNum): FLOOR</text></g><!--class STATE--><g id="elem_STATE"><rect codeLine="20" fill="#F1F1F1" height="96.8906" id="STATE" rx="2.5" ry="2.5" style="stroke:#181818;stroke-width:0.5;" width="176.001" x="217.1" y="7"/><ellipse cx="278.6439" cy="23" fill="#EB937F" rx="11" ry="11" style="stroke:#181818;stroke-width:1;"/><path d="M282.7533,29 L275.0346,29 L275.0346,16.6094 L282.7533,16.6094 L282.7533,18.7656 L277.4877,18.7656 L277.4877,21.4375 L282.2533,21.4375 L282.2533,23.5938 L277.4877,23.5938 L277.4877,26.8438 L282.7533,26.8438 L282.7533,29 Z " fill="#000000"/><text fill="#000000" font-family="sans-serif" font-size="14" lengthAdjust="spacing" textLength="44.4131" x="299.1439" y="27.8467">STATE</text><line style="stroke:#181818;stroke-width:0.5;" x1="218.1" x2="392.101" y1="39" y2="39"/><text fill="#000000" font-family="sans-serif" font-size="14" lengthAdjust="spacing" textLength="58.126" x="223.1" y="55.9951">MOVING</text><text fill="#000000" font-family="sans-serif" font-size="14" lengthAdjust="spacing" textLength="31.5547" x="223.1" y="72.292">IDLE</text><text fill="#000000" font-family="sans-serif" font-size="14" lengthAdjust="spacing" textLength="164.001" x="223.1" y="88.5889">UNDER_MAINTAINENCE</text><line style="stroke:#181818;stroke-width:0.5;" x1="218.1" x2="392.101" y1="95.8906" y2="95.8906"/></g><!--class Building--><g id="elem_Building"><rect codeLine="27" fill="#F1F1F1" height="96.8906" id="Building" rx="2.5" ry="2.5" style="stroke:#181818;stroke-width:0.5;" width="265.4492" x="1023.38" y="7"/><ellipse cx="1123.4581" cy="23" fill="#ADD1B2" rx="11" ry="11" style="stroke:#181818;stroke-width:1;"/><path d="M1126.4269,28.6406 Q1125.8488,28.9375 1125.2081,29.0781 Q1124.5675,29.2344 1123.8644,29.2344 Q1121.3644,29.2344 1120.0363,27.5938 Q1118.7238,25.9375 1118.7238,22.8125 Q1118.7238,19.6875 1120.0363,18.0313 Q1121.3644,16.375 1123.8644,16.375 Q1124.5675,16.375 1125.2081,16.5313 Q1125.8644,16.6875 1126.4269,16.9844 L1126.4269,19.7031 Q1125.8019,19.125 1125.2081,18.8594 Q1124.6144,18.5781 1123.9894,18.5781 Q1122.6456,18.5781 1121.9581,19.6563 Q1121.2706,20.7188 1121.2706,22.8125 Q1121.2706,24.9063 1121.9581,25.9844 Q1122.6456,27.0469 1123.9894,27.0469 Q1124.6144,27.0469 1125.2081,26.7813 Q1125.8019,26.5 1126.4269,25.9219 L1126.4269,28.6406 Z " fill="#000000"/><text fill="#000000" font-family="sans-serif" font-size="14" lengthAdjust="spacing" textLength="56.793" x="1143.9581" y="27.8467">Building</text><line style="stroke:#181818;stroke-width:0.5;" x1="1024.38" x2="1287.8292" y1="39" y2="39"/><rect fill="#FFFFFF" fill-opacity="0.00000" height="6" style="stroke:#C82930;stroke-width:1;" width="6" x="1031.38" y="49.6484"/><text fill="#000000" font-family="sans-serif" font-size="14" lengthAdjust="spacing" textLength="126.2119" x="1043.38" y="55.9951">List&lt;Floor&gt; floors</text><line style="stroke:#181818;stroke-width:0.5;" x1="1024.38" x2="1287.8292" y1="63.2969" y2="63.2969"/><ellipse cx="1034.38" cy="76.9453" fill="#84BE84" rx="3" ry="3" style="stroke:#038048;stroke-width:1;"/><text fill="#000000" font-family="sans-serif" font-size="14" lengthAdjust="spacing" textLength="167.9658" x="1043.38" y="80.292">getFloors(): List&lt;Floor&gt;</text><ellipse cx="1034.38" cy="93.2422" fill="#84BE84" rx="3" ry="3" style="stroke:#038048;stroke-width:1;"/><text fill="#000000" font-family="sans-serif" font-size="14" lengthAdjust="spacing" textLength="239.4492" x="1043.38" y="96.5889">setFloors(List&lt;Floor&gt; floors): void</text></g><!--class ButtonDispatcher--><g id="elem_ButtonDispatcher"><rect codeLine="33" fill="#F1F1F1" height="80.5938" id="ButtonDispatcher" rx="2.5" ry="2.5" style="stroke:#181818;stroke-width:0.5;" width="357.0166" x="417.6" y="836.2"/><ellipse cx="530.4818" cy="852.2" fill="#ADD1B2" rx="11" ry="11" style="stroke:#181818;stroke-width:1;"/><path d="M533.4506,857.8406 Q532.8725,858.1375 532.2318,858.2781 Q531.5912,858.4344 530.8881,858.4344 Q528.3881,858.4344 527.06,856.7938 Q525.7475,855.1375 525.7475,852.0125 Q525.7475,848.8875 527.06,847.2313 Q528.3881,845.575 530.8881,845.575 Q531.5912,845.575 532.2318,845.7313 Q532.8881,845.8875 533.4506,846.1844 L533.4506,848.9031 Q532.8256,848.325 532.2318,848.0594 Q531.6381,847.7781 531.0131,847.7781 Q529.6693,847.7781 528.9818,848.8563 Q528.2943,849.9188 528.2943,852.0125 Q528.2943,854.1063 528.9818,855.1844 Q529.6693,856.2469 531.0131,856.2469 Q531.6381,856.2469 532.2318,855.9813 Q532.8256,855.7 533.4506,855.1219 L533.4506,857.8406 Z " fill="#000000"/><text fill="#000000" font-family="sans-serif" font-size="14" lengthAdjust="spacing" textLength="122.7529" x="550.9818" y="857.0467">ButtonDispatcher</text><line style="stroke:#181818;stroke-width:0.5;" x1="418.6" x2="773.6166" y1="868.2" y2="868.2"/><rect fill="#FFFFFF" fill-opacity="0.00000" height="6" style="stroke:#C82930;stroke-width:1;" width="6" x="425.6" y="878.8484"/><text fill="#000000" font-family="sans-serif" font-size="14" lengthAdjust="spacing" textLength="331.0166" x="437.6" y="885.1951">List&lt;ElevatorController&gt; elevatorControllerList</text><line style="stroke:#181818;stroke-width:0.5;" x1="418.6" x2="773.6166" y1="892.4969" y2="892.4969"/><ellipse cx="428.6" cy="906.1453" fill="#84BE84" rx="3" ry="3" style="stroke:#038048;stroke-width:1;"/><text fill="#000000" font-family="sans-serif" font-size="14" lengthAdjust="spacing" textLength="224.7861" x="437.6" y="909.492">dispatch(Request request): void</text></g><!--class Display--><g id="elem_Display"><rect codeLine="38" fill="#F1F1F1" height="145.7813" id="Display" rx="2.5" ry="2.5" style="stroke:#181818;stroke-width:0.5;" width="304.209" x="7" y="605.97"/><ellipse cx="129.0522" cy="621.97" fill="#ADD1B2" rx="11" ry="11" style="stroke:#181818;stroke-width:1;"/><path d="M132.021,627.6106 Q131.4429,627.9075 130.8022,628.0481 Q130.1616,628.2044 129.4585,628.2044 Q126.9585,628.2044 125.6304,626.5638 Q124.3179,624.9075 124.3179,621.7825 Q124.3179,618.6575 125.6304,617.0013 Q126.9585,615.345 129.4585,615.345 Q130.1616,615.345 130.8022,615.5013 Q131.4585,615.6575 132.021,615.9544 L132.021,618.6731 Q131.396,618.095 130.8022,617.8294 Q130.2085,617.5481 129.5835,617.5481 Q128.2397,617.5481 127.5522,618.6263 Q126.8647,619.6888 126.8647,621.7825 Q126.8647,623.8763 127.5522,624.9544 Q128.2397,626.0169 129.5835,626.0169 Q130.2085,626.0169 130.8022,625.7513 Q131.396,625.47 132.021,624.8919 L132.021,627.6106 Z " fill="#000000"/><text fill="#000000" font-family="sans-serif" font-size="14" lengthAdjust="spacing" textLength="51.6045" x="149.5522" y="626.8167">Display</text><line style="stroke:#181818;stroke-width:0.5;" x1="8" x2="310.209" y1="637.97" y2="637.97"/><rect fill="#FFFFFF" fill-opacity="0.00000" height="6" style="stroke:#C82930;stroke-width:1;" width="6" x="15" y="648.6184"/><text fill="#000000" font-family="sans-serif" font-size="14" lengthAdjust="spacing" textLength="108.5889" x="27" y="654.9651">int currentFloor</text><rect fill="#FFFFFF" fill-opacity="0.00000" height="6" style="stroke:#C82930;stroke-width:1;" width="6" x="15" y="664.9153"/><text fill="#000000" font-family="sans-serif" font-size="14" lengthAdjust="spacing" textLength="143.541" x="27" y="671.262">DIRECTION direction</text><line style="stroke:#181818;stroke-width:0.5;" x1="8" x2="310.209" y1="678.5638" y2="678.5638"/><ellipse cx="18" cy="692.2122" fill="#84BE84" rx="3" ry="3" style="stroke:#038048;stroke-width:1;"/><text fill="#000000" font-family="sans-serif" font-size="14" lengthAdjust="spacing" textLength="149.2969" x="27" y="695.5589">getCurrentFloor(): int</text><ellipse cx="18" cy="708.5091" fill="#84BE84" rx="3" ry="3" style="stroke:#038048;stroke-width:1;"/><text fill="#000000" font-family="sans-serif" font-size="14" lengthAdjust="spacing" textLength="267.668" x="27" y="711.8557">setCurrentFloor(int currentFloor): void</text><ellipse cx="18" cy="724.8059" fill="#84BE84" rx="3" ry="3" style="stroke:#038048;stroke-width:1;"/><text fill="#000000" font-family="sans-serif" font-size="14" lengthAdjust="spacing" textLength="184.0645" x="27" y="728.1526">getDirection(): DIRECTION</text><ellipse cx="18" cy="741.1028" fill="#84BE84" rx="3" ry="3" style="stroke:#038048;stroke-width:1;"/><text fill="#000000" font-family="sans-serif" font-size="14" lengthAdjust="spacing" textLength="278.209" x="27" y="744.4495">setDirection(DIRECTION direction): void</text></g><!--class Elevator--><g id="elem_Elevator"><rect codeLine="47" fill="#F1F1F1" height="357.6406" id="Elevator" rx="2.5" ry="2.5" style="stroke:#181818;stroke-width:0.5;" width="404.6152" x="260.8" y="163.89"/><ellipse cx="429.8459" cy="179.89" fill="#ADD1B2" rx="11" ry="11" style="stroke:#181818;stroke-width:1;"/><path d="M432.8146,185.5306 Q432.2365,185.8275 431.5959,185.9681 Q430.9553,186.1244 430.2521,186.1244 Q427.7521,186.1244 426.424,184.4838 Q425.1115,182.8275 425.1115,179.7025 Q425.1115,176.5775 426.424,174.9213 Q427.7521,173.265 430.2521,173.265 Q430.9553,173.265 431.5959,173.4213 Q432.2521,173.5775 432.8146,173.8744 L432.8146,176.5931 Q432.1896,176.015 431.5959,175.7494 Q431.0021,175.4681 430.3771,175.4681 Q429.0334,175.4681 428.3459,176.5463 Q427.6584,177.6088 427.6584,179.7025 Q427.6584,181.7963 428.3459,182.8744 Q429.0334,183.9369 430.3771,183.9369 Q431.0021,183.9369 431.5959,183.6713 Q432.1896,183.39 432.8146,182.8119 L432.8146,185.5306 Z " fill="#000000"/><text fill="#000000" font-family="sans-serif" font-size="14" lengthAdjust="spacing" textLength="58.0234" x="450.3459" y="184.7367">Elevator</text><line style="stroke:#181818;stroke-width:0.5;" x1="261.8" x2="664.4152" y1="195.89" y2="195.89"/><rect fill="#FFFFFF" fill-opacity="0.00000" height="6" style="stroke:#C82930;stroke-width:1;" width="6" x="268.8" y="206.5384"/><text fill="#000000" font-family="sans-serif" font-size="14" lengthAdjust="spacing" textLength="136.7324" x="280.8" y="212.8851">int elevatorNumber</text><rect fill="#FFFFFF" fill-opacity="0.00000" height="6" style="stroke:#C82930;stroke-width:1;" width="6" x="268.8" y="222.8353"/><text fill="#000000" font-family="sans-serif" font-size="14" lengthAdjust="spacing" textLength="84.3281" x="280.8" y="229.182">STATE state</text><rect fill="#FFFFFF" fill-opacity="0.00000" height="6" style="stroke:#C82930;stroke-width:1;" width="6" x="268.8" y="239.1322"/><text fill="#000000" font-family="sans-serif" font-size="14" lengthAdjust="spacing" textLength="143.541" x="280.8" y="245.4789">DIRECTION direction</text><rect fill="#FFFFFF" fill-opacity="0.00000" height="6" style="stroke:#C82930;stroke-width:1;" width="6" x="268.8" y="255.4291"/><text fill="#000000" font-family="sans-serif" font-size="14" lengthAdjust="spacing" textLength="206.4043" x="280.8" y="261.7757">InternalButton internalButton</text><rect fill="#FFFFFF" fill-opacity="0.00000" height="6" style="stroke:#C82930;stroke-width:1;" width="6" x="268.8" y="271.7259"/><text fill="#000000" font-family="sans-serif" font-size="14" lengthAdjust="spacing" textLength="105.7656" x="280.8" y="278.0726">Display display</text><rect fill="#FFFFFF" fill-opacity="0.00000" height="6" style="stroke:#C82930;stroke-width:1;" width="6" x="268.8" y="288.0228"/><text fill="#000000" font-family="sans-serif" font-size="14" lengthAdjust="spacing" textLength="83.7744" x="280.8" y="294.3695">FLOOR floor</text><line style="stroke:#181818;stroke-width:0.5;" x1="261.8" x2="664.4152" y1="301.6713" y2="301.6713"/><ellipse cx="271.8" cy="315.3197" fill="#84BE84" rx="3" ry="3" style="stroke:#038048;stroke-width:1;"/><text fill="#000000" font-family="sans-serif" font-size="14" lengthAdjust="spacing" textLength="175.5947" x="280.8" y="318.6664">getElevatorNumber(): int</text><ellipse cx="271.8" cy="331.6166" fill="#84BE84" rx="3" ry="3" style="stroke:#038048;stroke-width:1;"/><text fill="#000000" font-family="sans-serif" font-size="14" lengthAdjust="spacing" textLength="322.1094" x="280.8" y="334.9632">setElevatorNumber(int elevatorNumber): void</text><ellipse cx="271.8" cy="347.9134" fill="#84BE84" rx="3" ry="3" style="stroke:#038048;stroke-width:1;"/><text fill="#000000" font-family="sans-serif" font-size="14" lengthAdjust="spacing" textLength="124.5508" x="280.8" y="351.2601">getState(): STATE</text><ellipse cx="271.8" cy="364.2103" fill="#84BE84" rx="3" ry="3" style="stroke:#038048;stroke-width:1;"/><text fill="#000000" font-family="sans-serif" font-size="14" lengthAdjust="spacing" textLength="192.5" x="280.8" y="367.557">setState(STATE state): void</text><ellipse cx="271.8" cy="380.5072" fill="#84BE84" rx="3" ry="3" style="stroke:#038048;stroke-width:1;"/><text fill="#000000" font-family="sans-serif" font-size="14" lengthAdjust="spacing" textLength="184.0645" x="280.8" y="383.8539">getDirection(): DIRECTION</text><ellipse cx="271.8" cy="396.8041" fill="#84BE84" rx="3" ry="3" style="stroke:#038048;stroke-width:1;"/><text fill="#000000" font-family="sans-serif" font-size="14" lengthAdjust="spacing" textLength="278.209" x="280.8" y="400.1507">setDirection(DIRECTION direction): void</text><ellipse cx="271.8" cy="413.1009" fill="#84BE84" rx="3" ry="3" style="stroke:#038048;stroke-width:1;"/><text fill="#000000" font-family="sans-serif" font-size="14" lengthAdjust="spacing" textLength="245.2734" x="280.8" y="416.4476">getInternalButton(): InternalButton</text><ellipse cx="271.8" cy="429.3978" fill="#84BE84" rx="3" ry="3" style="stroke:#038048;stroke-width:1;"/><text fill="#000000" font-family="sans-serif" font-size="14" lengthAdjust="spacing" textLength="378.6152" x="280.8" y="432.7445">setInternalButton(InternalButton internalButton): void</text><ellipse cx="271.8" cy="445.6947" fill="#84BE84" rx="3" ry="3" style="stroke:#038048;stroke-width:1;"/><text fill="#000000" font-family="sans-serif" font-size="14" lengthAdjust="spacing" textLength="146.2891" x="280.8" y="449.0414">getDisplay(): Display</text><ellipse cx="271.8" cy="461.9916" fill="#84BE84" rx="3" ry="3" style="stroke:#038048;stroke-width:1;"/><text fill="#000000" font-family="sans-serif" font-size="14" lengthAdjust="spacing" textLength="228.4844" x="280.8" y="465.3382">setDisplay(Display display): void</text><ellipse cx="271.8" cy="478.2884" fill="#84BE84" rx="3" ry="3" style="stroke:#038048;stroke-width:1;"/><text fill="#000000" font-family="sans-serif" font-size="14" lengthAdjust="spacing" textLength="125.5283" x="280.8" y="481.6351">getFloor(): FLOOR</text><ellipse cx="271.8" cy="494.5853" fill="#84BE84" rx="3" ry="3" style="stroke:#038048;stroke-width:1;"/><text fill="#000000" font-family="sans-serif" font-size="14" lengthAdjust="spacing" textLength="189.7178" x="280.8" y="497.932">setFloor(FLOOR floor): void</text><ellipse cx="271.8" cy="510.8822" fill="#84BE84" rx="3" ry="3" style="stroke:#038048;stroke-width:1;"/><text fill="#000000" font-family="sans-serif" font-size="14" lengthAdjust="spacing" textLength="117.708" x="280.8" y="514.2289">toString(): String</text></g><!--class ElevatorController--><g id="elem_ElevatorController"><rect codeLine="69" fill="#F1F1F1" height="178.375" id="ElevatorController" rx="2.5" ry="2.5" style="stroke:#181818;stroke-width:0.5;" width="431.5215" x="264.34" y="976.79"/><ellipse cx="412.2526" cy="992.79" fill="#ADD1B2" rx="11" ry="11" style="stroke:#181818;stroke-width:1;"/><path d="M415.2213,998.4306 Q414.6432,998.7275 414.0026,998.8681 Q413.362,999.0244 412.6588,999.0244 Q410.1588,999.0244 408.8307,997.3838 Q407.5182,995.7275 407.5182,992.6025 Q407.5182,989.4775 408.8307,987.8213 Q410.1588,986.165 412.6588,986.165 Q413.362,986.165 414.0026,986.3213 Q414.6588,986.4775 415.2213,986.7744 L415.2213,989.4931 Q414.5963,988.915 414.0026,988.6494 Q413.4088,988.3681 412.7838,988.3681 Q411.4401,988.3681 410.7526,989.4463 Q410.0651,990.5088 410.0651,992.6025 Q410.0651,994.6963 410.7526,995.7744 Q411.4401,996.8369 412.7838,996.8369 Q413.4088,996.8369 414.0026,996.5713 Q414.5963,996.29 415.2213,995.7119 L415.2213,998.4306 Z " fill="#000000"/><text fill="#000000" font-family="sans-serif" font-size="14" lengthAdjust="spacing" textLength="127.1963" x="432.7526" y="997.6367">ElevatorController</text><line style="stroke:#181818;stroke-width:0.5;" x1="265.34" x2="694.8615" y1="1008.79" y2="1008.79"/><rect fill="#FFFFFF" fill-opacity="0.00000" height="6" style="stroke:#C82930;stroke-width:1;" width="6" x="272.34" y="1019.4384"/><text fill="#000000" font-family="sans-serif" font-size="14" lengthAdjust="spacing" textLength="120.2646" x="284.34" y="1025.7851">Elevator elevator</text><rect fill="#FFFFFF" fill-opacity="0.00000" height="6" style="stroke:#C82930;stroke-width:1;" width="6" x="272.34" y="1035.7353"/><text fill="#000000" font-family="sans-serif" font-size="14" lengthAdjust="spacing" textLength="230.918" x="284.34" y="1042.082">Queue&lt;Request&gt; requestQueue</text><rect fill="#FFFFFF" fill-opacity="0.00000" height="6" style="stroke:#C82930;stroke-width:1;" width="6" x="272.34" y="1052.0322"/><text fill="#000000" font-family="sans-serif" font-size="14" lengthAdjust="spacing" textLength="129.6025" x="284.34" y="1058.3789">boolean isRunning</text><line style="stroke:#181818;stroke-width:0.5;" x1="265.34" x2="694.8615" y1="1065.6806" y2="1065.6806"/><ellipse cx="275.34" cy="1079.3291" fill="#84BE84" rx="3" ry="3" style="stroke:#038048;stroke-width:1;"/><text fill="#000000" font-family="sans-serif" font-size="14" lengthAdjust="spacing" textLength="159.127" x="284.34" y="1082.6757">getElevator(): Elevator</text><ellipse cx="275.34" cy="1095.6259" fill="#84BE84" rx="3" ry="3" style="stroke:#038048;stroke-width:1;"/><text fill="#000000" font-family="sans-serif" font-size="14" lengthAdjust="spacing" textLength="249.4023" x="284.34" y="1098.9726">setElevator(Elevator elevator): void</text><ellipse cx="275.34" cy="1111.9228" fill="#84BE84" rx="3" ry="3" style="stroke:#038048;stroke-width:1;"/><text fill="#000000" font-family="sans-serif" font-size="14" lengthAdjust="spacing" textLength="273.5195" x="284.34" y="1115.2695">getRequestQueue(): Queue&lt;Request&gt;</text><ellipse cx="275.34" cy="1128.2197" fill="#84BE84" rx="3" ry="3" style="stroke:#038048;stroke-width:1;"/><text fill="#000000" font-family="sans-serif" font-size="14" lengthAdjust="spacing" textLength="405.5215" x="284.34" y="1131.5664">setRequestQueue(Queue&lt;Request&gt; requestQueue): void</text><ellipse cx="275.34" cy="1144.5166" fill="#84BE84" rx="3" ry="3" style="stroke:#038048;stroke-width:1;"/><text fill="#000000" font-family="sans-serif" font-size="14" lengthAdjust="spacing" textLength="315.7178" x="284.34" y="1147.8632">dispatchElevator(Request newRequest): void</text></g><!--class ExternalButton--><g id="elem_ExternalButton"><rect codeLine="80" fill="#F1F1F1" height="113.1875" id="ExternalButton" rx="2.5" ry="2.5" style="stroke:#181818;stroke-width:0.5;" width="275.2383" x="1018.49" y="622.27"/><ellipse cx="1099.2463" cy="638.27" fill="#ADD1B2" rx="11" ry="11" style="stroke:#181818;stroke-width:1;"/><path d="M1102.2151,643.9106 Q1101.637,644.2075 1100.9963,644.3481 Q1100.3557,644.5044 1099.6526,644.5044 Q1097.1526,644.5044 1095.8245,642.8638 Q1094.512,641.2075 1094.512,638.0825 Q1094.512,634.9575 1095.8245,633.3013 Q1097.1526,631.645 1099.6526,631.645 Q1100.3557,631.645 1100.9963,631.8013 Q1101.6526,631.9575 1102.2151,632.2544 L1102.2151,634.9731 Q1101.5901,634.395 1100.9963,634.1294 Q1100.4026,633.8481 1099.7776,633.8481 Q1098.4338,633.8481 1097.7463,634.9263 Q1097.0588,635.9888 1097.0588,638.0825 Q1097.0588,640.1763 1097.7463,641.2544 Q1098.4338,642.3169 1099.7776,642.3169 Q1100.4026,642.3169 1100.9963,642.0513 Q1101.5901,641.77 1102.2151,641.1919 L1102.2151,643.9106 Z " fill="#000000"/><text fill="#000000" font-family="sans-serif" font-size="14" lengthAdjust="spacing" textLength="105.2256" x="1119.7463" y="643.1167">ExternalButton</text><line style="stroke:#181818;stroke-width:0.5;" x1="1019.49" x2="1292.7283" y1="654.27" y2="654.27"/><rect fill="#FFFFFF" fill-opacity="0.00000" height="6" style="stroke:#C82930;stroke-width:1;" width="6" x="1026.49" y="664.9184"/><text fill="#000000" font-family="sans-serif" font-size="14" lengthAdjust="spacing" textLength="249.2383" x="1038.49" y="671.2651">ButtonDispatcher buttonDispatcher</text><rect fill="#FFFFFF" fill-opacity="0.00000" height="6" style="stroke:#C82930;stroke-width:1;" width="6" x="1026.49" y="681.2153"/><text fill="#000000" font-family="sans-serif" font-size="14" lengthAdjust="spacing" textLength="83.7744" x="1038.49" y="687.562">FLOOR floor</text><rect fill="#FFFFFF" fill-opacity="0.00000" height="6" style="stroke:#C82930;stroke-width:1;" width="6" x="1026.49" y="697.5122"/><text fill="#000000" font-family="sans-serif" font-size="14" lengthAdjust="spacing" textLength="93.5088" x="1038.49" y="703.8589">int elevatorId</text><line style="stroke:#181818;stroke-width:0.5;" x1="1019.49" x2="1292.7283" y1="711.1606" y2="711.1606"/><ellipse cx="1029.49" cy="724.8091" fill="#84BE84" rx="3" ry="3" style="stroke:#038048;stroke-width:1;"/><text fill="#000000" font-family="sans-serif" font-size="14" lengthAdjust="spacing" textLength="134.4561" x="1038.49" y="728.1557">pressButton(): void</text></g><!--class Floor--><g id="elem_Floor"><rect codeLine="87" fill="#F1F1F1" height="145.7813" id="Floor" rx="2.5" ry="2.5" style="stroke:#181818;stroke-width:0.5;" width="513.8877" x="899.16" y="269.82"/><ellipse cx="1134.4393" cy="285.82" fill="#ADD1B2" rx="11" ry="11" style="stroke:#181818;stroke-width:1;"/><path d="M1137.408,291.4606 Q1136.8299,291.7575 1136.1893,291.8981 Q1135.5487,292.0544 1134.8455,292.0544 Q1132.3455,292.0544 1131.0174,290.4137 Q1129.7049,288.7575 1129.7049,285.6325 Q1129.7049,282.5075 1131.0174,280.8512 Q1132.3455,279.195 1134.8455,279.195 Q1135.5487,279.195 1136.1893,279.3512 Q1136.8455,279.5075 1137.408,279.8044 L1137.408,282.5231 Q1136.783,281.945 1136.1893,281.6794 Q1135.5955,281.3981 1134.9705,281.3981 Q1133.6268,281.3981 1132.9393,282.4762 Q1132.2518,283.5387 1132.2518,285.6325 Q1132.2518,287.7262 1132.9393,288.8044 Q1133.6268,289.8669 1134.9705,289.8669 Q1135.5955,289.8669 1136.1893,289.6012 Q1136.783,289.32 1137.408,288.7419 L1137.408,291.4606 Z " fill="#000000"/><text fill="#000000" font-family="sans-serif" font-size="14" lengthAdjust="spacing" textLength="34.8291" x="1154.9393" y="290.6667">Floor</text><line style="stroke:#181818;stroke-width:0.5;" x1="900.16" x2="1412.0477" y1="301.82" y2="301.82"/><rect fill="#FFFFFF" fill-opacity="0.00000" height="6" style="stroke:#C82930;stroke-width:1;" width="6" x="907.16" y="312.4684"/><text fill="#000000" font-family="sans-serif" font-size="14" lengthAdjust="spacing" textLength="287.0752" x="919.16" y="318.8151">List&lt;ExternalButton&gt; externalButtonList</text><rect fill="#FFFFFF" fill-opacity="0.00000" height="6" style="stroke:#C82930;stroke-width:1;" width="6" x="907.16" y="328.7653"/><text fill="#000000" font-family="sans-serif" font-size="14" lengthAdjust="spacing" textLength="83.7744" x="919.16" y="335.112">FLOOR floor</text><line style="stroke:#181818;stroke-width:0.5;" x1="900.16" x2="1412.0477" y1="342.4137" y2="342.4137"/><ellipse cx="910.16" cy="356.0622" fill="#84BE84" rx="3" ry="3" style="stroke:#038048;stroke-width:1;"/><text fill="#000000" font-family="sans-serif" font-size="14" lengthAdjust="spacing" textLength="325.9375" x="919.16" y="359.4089">getExternalButtonList(): List&lt;ExternalButton&gt;</text><ellipse cx="910.16" cy="372.3591" fill="#84BE84" rx="3" ry="3" style="stroke:#038048;stroke-width:1;"/><text fill="#000000" font-family="sans-serif" font-size="14" lengthAdjust="spacing" textLength="487.8877" x="919.16" y="375.7057">setExternalButtonList(List&lt;ExternalButton&gt; externalButtonList): void</text><ellipse cx="910.16" cy="388.6559" fill="#84BE84" rx="3" ry="3" style="stroke:#038048;stroke-width:1;"/><text fill="#000000" font-family="sans-serif" font-size="14" lengthAdjust="spacing" textLength="125.5283" x="919.16" y="392.0026">getFloor(): FLOOR</text><ellipse cx="910.16" cy="404.9528" fill="#84BE84" rx="3" ry="3" style="stroke:#038048;stroke-width:1;"/><text fill="#000000" font-family="sans-serif" font-size="14" lengthAdjust="spacing" textLength="189.7178" x="919.16" y="408.2995">setFloor(FLOOR floor): void</text></g><!--class InternalButton--><g id="elem_InternalButton"><rect codeLine="96" fill="#F1F1F1" height="96.8906" id="InternalButton" rx="2.5" ry="2.5" style="stroke:#181818;stroke-width:0.5;" width="292.54" x="416.83" y="630.42"/><ellipse cx="508.3017" cy="646.42" fill="#ADD1B2" rx="11" ry="11" style="stroke:#181818;stroke-width:1;"/><path d="M511.2704,652.0606 Q510.6923,652.3575 510.0517,652.4981 Q509.4111,652.6544 508.7079,652.6544 Q506.2079,652.6544 504.8798,651.0138 Q503.5673,649.3575 503.5673,646.2325 Q503.5673,643.1075 504.8798,641.4513 Q506.2079,639.795 508.7079,639.795 Q509.4111,639.795 510.0517,639.9513 Q510.7079,640.1075 511.2704,640.4044 L511.2704,643.1231 Q510.6454,642.545 510.0517,642.2794 Q509.4579,641.9981 508.8329,641.9981 Q507.4892,641.9981 506.8017,643.0763 Q506.1142,644.1388 506.1142,646.2325 Q506.1142,648.3263 506.8017,649.4044 Q507.4892,650.4669 508.8329,650.4669 Q509.4579,650.4669 510.0517,650.2013 Q510.6454,649.92 511.2704,649.3419 L511.2704,652.0606 Z " fill="#000000"/><text fill="#000000" font-family="sans-serif" font-size="14" lengthAdjust="spacing" textLength="101.0967" x="528.8017" y="651.2667">InternalButton</text><line style="stroke:#181818;stroke-width:0.5;" x1="417.83" x2="708.37" y1="662.42" y2="662.42"/><rect fill="#FFFFFF" fill-opacity="0.00000" height="6" style="stroke:#C82930;stroke-width:1;" width="6" x="424.83" y="673.0684"/><text fill="#000000" font-family="sans-serif" font-size="14" lengthAdjust="spacing" textLength="249.2383" x="436.83" y="679.4151">ButtonDispatcher buttonDispatcher</text><rect fill="#FFFFFF" fill-opacity="0.00000" height="6" style="stroke:#C82930;stroke-width:1;" width="6" x="424.83" y="689.3653"/><text fill="#000000" font-family="sans-serif" font-size="14" lengthAdjust="spacing" textLength="93.5088" x="436.83" y="695.712">int elevatorId</text><line style="stroke:#181818;stroke-width:0.5;" x1="417.83" x2="708.37" y1="703.0138" y2="703.0138"/><ellipse cx="427.83" cy="716.6622" fill="#84BE84" rx="3" ry="3" style="stroke:#038048;stroke-width:1;"/><text fill="#000000" font-family="sans-serif" font-size="14" lengthAdjust="spacing" textLength="266.54" x="436.83" y="720.0089">pressButton(int destinatonFloor): void</text></g><!--class Request--><g id="elem_Request"><rect codeLine="102" fill="#F1F1F1" height="145.7813" id="Request" rx="2.5" ry="2.5" style="stroke:#181818;stroke-width:0.5;" width="348.2529" x="305.98" y="1215.17"/><ellipse cx="447.1079" cy="1231.17" fill="#ADD1B2" rx="11" ry="11" style="stroke:#181818;stroke-width:1;"/><path d="M450.0767,1236.8106 Q449.4986,1237.1075 448.8579,1237.2481 Q448.2173,1237.4044 447.5142,1237.4044 Q445.0142,1237.4044 443.6861,1235.7638 Q442.3736,1234.1075 442.3736,1230.9825 Q442.3736,1227.8575 443.6861,1226.2013 Q445.0142,1224.545 447.5142,1224.545 Q448.2173,1224.545 448.8579,1224.7013 Q449.5142,1224.8575 450.0767,1225.1544 L450.0767,1227.8731 Q449.4517,1227.295 448.8579,1227.0294 Q448.2642,1226.7481 447.6392,1226.7481 Q446.2954,1226.7481 445.6079,1227.8263 Q444.9204,1228.8888 444.9204,1230.9825 Q444.9204,1233.0763 445.6079,1234.1544 Q446.2954,1235.2169 447.6392,1235.2169 Q448.2642,1235.2169 448.8579,1234.9513 Q449.4517,1234.67 450.0767,1234.0919 L450.0767,1236.8106 Z " fill="#000000"/><text fill="#000000" font-family="sans-serif" font-size="14" lengthAdjust="spacing" textLength="57.4971" x="467.6079" y="1236.0167">Request</text><line style="stroke:#181818;stroke-width:0.5;" x1="306.98" x2="653.2329" y1="1247.17" y2="1247.17"/><rect fill="#FFFFFF" fill-opacity="0.00000" height="6" style="stroke:#C82930;stroke-width:1;" width="6" x="313.98" y="1257.8184"/><text fill="#000000" font-family="sans-serif" font-size="14" lengthAdjust="spacing" textLength="135.9736" x="325.98" y="1264.1651">int destinationFloor</text><rect fill="#FFFFFF" fill-opacity="0.00000" height="6" style="stroke:#C82930;stroke-width:1;" width="6" x="313.98" y="1274.1153"/><text fill="#000000" font-family="sans-serif" font-size="14" lengthAdjust="spacing" textLength="93.5088" x="325.98" y="1280.462">int elevatorId</text><line style="stroke:#181818;stroke-width:0.5;" x1="306.98" x2="653.2329" y1="1287.7638" y2="1287.7638"/><ellipse cx="316.98" cy="1301.4122" fill="#84BE84" rx="3" ry="3" style="stroke:#038048;stroke-width:1;"/><text fill="#000000" font-family="sans-serif" font-size="14" lengthAdjust="spacing" textLength="176.4971" x="325.98" y="1304.7589">getDestinationFloor(): int</text><ellipse cx="316.98" cy="1317.7091" fill="#84BE84" rx="3" ry="3" style="stroke:#038048;stroke-width:1;"/><text fill="#000000" font-family="sans-serif" font-size="14" lengthAdjust="spacing" textLength="322.2529" x="325.98" y="1321.0557">setDestinationFloor(int destinationFloor): void</text><ellipse cx="316.98" cy="1334.0059" fill="#84BE84" rx="3" ry="3" style="stroke:#038048;stroke-width:1;"/><text fill="#000000" font-family="sans-serif" font-size="14" lengthAdjust="spacing" textLength="132.3711" x="325.98" y="1337.3526">getElevatorId(): int</text><ellipse cx="316.98" cy="1350.3028" fill="#84BE84" rx="3" ry="3" style="stroke:#038048;stroke-width:1;"/><text fill="#000000" font-family="sans-serif" font-size="14" lengthAdjust="spacing" textLength="235.6621" x="325.98" y="1353.6495">setElevatorId(int elevatorId): void</text></g><!--class Main--><g id="elem_Main"><rect codeLine="111" fill="#F1F1F1" height="64.2969" id="Main" rx="2.5" ry="2.5" style="stroke:#181818;stroke-width:0.5;" width="198.3682" x="27.92" y="310.56"/><ellipse cx="106.1436" cy="326.56" fill="#ADD1B2" rx="11" ry="11" style="stroke:#181818;stroke-width:1;"/><path d="M109.1124,332.2006 Q108.5343,332.4975 107.8936,332.6381 Q107.253,332.7944 106.5499,332.7944 Q104.0499,332.7944 102.7218,331.1537 Q101.4093,329.4975 101.4093,326.3725 Q101.4093,323.2475 102.7218,321.5912 Q104.0499,319.935 106.5499,319.935 Q107.253,319.935 107.8936,320.0912 Q108.5499,320.2475 109.1124,320.5444 L109.1124,323.2631 Q108.4874,322.685 107.8936,322.4194 Q107.2999,322.1381 106.6749,322.1381 Q105.3311,322.1381 104.6436,323.2162 Q103.9561,324.2787 103.9561,326.3725 Q103.9561,328.4662 104.6436,329.5444 Q105.3311,330.6069 106.6749,330.6069 Q107.2999,330.6069 107.8936,330.3412 Q108.4874,330.06 109.1124,329.4819 L109.1124,332.2006 Z " fill="#000000"/><text fill="#000000" font-family="sans-serif" font-size="14" lengthAdjust="spacing" textLength="33.4209" x="126.6436" y="331.4067">Main</text><line style="stroke:#181818;stroke-width:0.5;" x1="28.92" x2="225.2882" y1="342.56" y2="342.56"/><line style="stroke:#181818;stroke-width:0.5;" x1="28.92" x2="225.2882" y1="350.56" y2="350.56"/><ellipse cx="38.92" cy="364.2084" fill="#84BE84" rx="3" ry="3" style="stroke:#038048;stroke-width:1;"/><text fill="#000000" font-family="sans-serif" font-size="14" lengthAdjust="spacing" textLength="172.3682" x="47.92" y="367.5551">main(String[] args): void</text></g><!--reverse link Building to Floor--><g id="link_Building_Floor"><path codeLine="116" d="M1156.1,116.19 C1156.1,161.31 1156.1,217.63 1156.1,269.43 " fill="#FFFFFF" fill-opacity="0.00000" id="Building-backto-Floor" style="stroke:#181818;stroke-width:1;"/><polygon fill="#181818" points="1156.1,104.19,1152.1,110.19,1156.1,116.19,1160.1,110.19,1156.1,104.19" style="stroke:#181818;stroke-width:1;"/><text fill="#000000" font-family="sans-serif" font-size="13" lengthAdjust="spacing" textLength="8.271" x="1147.5801" y="123.8237">1</text><text fill="#000000" font-family="sans-serif" font-size="13" lengthAdjust="spacing" textLength="36.5625" x="1118.4108" y="258.8038">many</text></g><!--reverse link Floor to ExternalButton--><g id="link_Floor_ExternalButton"><path codeLine="117" d="M1156.1,427.8 C1156.1,489.58 1156.1,565.31 1156.1,621.91 " fill="#FFFFFF" fill-opacity="0.00000" id="Floor-backto-ExternalButton" style="stroke:#181818;stroke-width:1;"/><polygon fill="#181818" points="1156.1,415.8,1152.1,421.8,1156.1,427.8,1160.1,421.8,1156.1,415.8" style="stroke:#181818;stroke-width:1;"/><text fill="#000000" font-family="sans-serif" font-size="13" lengthAdjust="spacing" textLength="8.271" x="1147.7313" y="435.5544">1</text><text fill="#000000" font-family="sans-serif" font-size="13" lengthAdjust="spacing" textLength="36.5625" x="1117.9394" y="611.1297">many</text></g><!--link ExternalButton to ButtonDispatcher--><g id="link_ExternalButton_ButtonDispatcher"><path codeLine="118" d="M1076.66,735.91 C1053.15,750.62 1026.8,765.39 1001.1,776.2 C929.54,806.31 852.7109,827.3357 780.7909,843.0957 " fill="#FFFFFF" fill-opacity="0.00000" id="ExternalButton-to-ButtonDispatcher" style="stroke:#181818;stroke-width:1;"/><polygon fill="#181818" points="774.93,844.38,784.5776,846.3608,779.8141,843.3097,782.8652,838.5462,774.93,844.38" style="stroke:#181818;stroke-width:1;"/><text fill="#000000" font-family="sans-serif" font-size="13" lengthAdjust="spacing" textLength="8.271" x="1059.0269" y="755.4477">1</text><text fill="#000000" font-family="sans-serif" font-size="13" lengthAdjust="spacing" textLength="8.271" x="782.6485" y="839.7784">1</text></g><!--link InternalButton to ButtonDispatcher--><g id="link_InternalButton_ButtonDispatcher"><path codeLine="119" d="M571.18,727.72 C576.77,760.86 583.1219,798.5536 588.3919,829.7936 " fill="#FFFFFF" fill-opacity="0.00000" id="InternalButton-to-ButtonDispatcher" style="stroke:#181818;stroke-width:1;"/><polygon fill="#181818" points="589.39,835.71,591.8372,826.17,588.5583,830.7797,583.9486,827.5008,589.39,835.71" style="stroke:#181818;stroke-width:1;"/><text fill="#000000" font-family="sans-serif" font-size="13" lengthAdjust="spacing" textLength="8.271" x="563.7465" y="747.3685">1</text><text fill="#000000" font-family="sans-serif" font-size="13" lengthAdjust="spacing" textLength="8.271" x="579.7034" y="825.0918">1</text></g><!--reverse link ButtonDispatcher to ElevatorController--><g id="link_ButtonDispatcher_ElevatorController"><path codeLine="120" d="M565.187,927.4652 C554.417,944.8752 547.62,955.85 534.74,976.68 " fill="#FFFFFF" fill-opacity="0.00000" id="ButtonDispatcher-backto-ElevatorController" style="stroke:#181818;stroke-width:1;"/><polygon fill="#181818" points="571.5,917.26,564.9418,920.2582,565.187,927.4652,571.7452,924.4669,571.5,917.26" style="stroke:#181818;stroke-width:1;"/><text fill="#000000" font-family="sans-serif" font-size="13" lengthAdjust="spacing" textLength="8.271" x="559.1401" y="936.7274">1</text><text fill="#000000" font-family="sans-serif" font-size="13" lengthAdjust="spacing" textLength="36.5625" x="501.7975" y="965.7364">many</text></g><!--link ElevatorController to Elevator--><g id="link_ElevatorController_Elevator"><path codeLine="121" d="M423.43,976.57 C413.83,957.54 405.3,937.04 400.1,916.79 C363.09,772.46 379.58,729.25 399.1,581.53 C401.68,562.03 404.1202,547.7219 408.4802,527.7519 " fill="#FFFFFF" fill-opacity="0.00000" id="ElevatorController-to-Elevator" style="stroke:#181818;stroke-width:1;"/><polygon fill="#181818" points="409.76,521.89,403.9323,529.8297,408.6935,526.7749,411.7482,531.5361,409.76,521.89" style="stroke:#181818;stroke-width:1;"/><text fill="#000000" font-family="sans-serif" font-size="13" lengthAdjust="spacing" textLength="8.271" x="410.4169" y="965.6172">1</text><text fill="#000000" font-family="sans-serif" font-size="13" lengthAdjust="spacing" textLength="8.271" x="399.3464" y="541.8352">1</text></g><!--link Elevator to Display--><g id="link_Elevator_Display"><path codeLine="122" d="M301.31,521.55 C274.23,551.32 251.5977,576.1919 228.8077,601.2419 " fill="#FFFFFF" fill-opacity="0.00000" id="Elevator-to-Display" style="stroke:#181818;stroke-width:1;"/><polygon fill="#181818" points="224.77,605.68,233.7853,601.7146,228.1348,601.9816,227.8678,596.331,224.77,605.68" style="stroke:#181818;stroke-width:1;"/><text fill="#000000" font-family="sans-serif" font-size="13" lengthAdjust="spacing" textLength="8.271" x="286.3211" y="541.4809">1</text><text fill="#000000" font-family="sans-serif" font-size="13" lengthAdjust="spacing" textLength="8.271" x="222.8535" y="594.8114">1</text></g><!--link Elevator to InternalButton--><g id="link_Elevator_InternalButton"><path codeLine="123" d="M516.33,521.55 C528.31,561.6 538.3299,595.0818 547.0499,624.2218 " fill="#FFFFFF" fill-opacity="0.00000" id="Elevator-to-InternalButton" style="stroke:#181818;stroke-width:1;"/><polygon fill="#181818" points="548.77,629.97,550.0219,620.201,547.3366,625.1799,542.3577,622.4945,548.77,629.97" style="stroke:#181818;stroke-width:1;"/><text fill="#000000" font-family="sans-serif" font-size="13" lengthAdjust="spacing" textLength="8.271" x="510.4123" y="541.4809">1</text><text fill="#000000" font-family="sans-serif" font-size="13" lengthAdjust="spacing" textLength="8.271" x="538.3251" y="619.4677">1</text></g><!--link Elevator to FLOOR--><g id="link_Elevator_FLOOR"><path codeLine="124" d="M665.66,512.5 C693.95,536.08 717.5799,555.7698 743.5099,577.3698 " fill="#FFFFFF" fill-opacity="0.00000" id="Elevator-to-FLOOR" style="stroke:#181818;stroke-width:1;"/><polygon fill="#181818" points="748.12,581.21,743.7651,572.3763,744.2783,578.0098,738.6448,578.523,748.12,581.21" style="stroke:#181818;stroke-width:1;"/><text fill="#000000" font-family="sans-serif" font-size="13" lengthAdjust="spacing" textLength="8.271" x="673.7337" y="515.9089">1</text><text fill="#000000" font-family="sans-serif" font-size="13" lengthAdjust="spacing" textLength="8.271" x="731.3182" y="570.5594">1</text></g><!--reverse link ElevatorController to Request--><g id="link_ElevatorController_Request"><path codeLine="125" d="M480.1,1167.54 C480.1,1187.25 480.1,1195.92 480.1,1214.87 " fill="#FFFFFF" fill-opacity="0.00000" id="ElevatorController-backto-Request" style="stroke:#181818;stroke-width:1;"/><polygon fill="#181818" points="480.1,1155.54,476.1,1161.54,480.1,1167.54,484.1,1161.54,480.1,1155.54" style="stroke:#181818;stroke-width:1;"/><text fill="#000000" font-family="sans-serif" font-size="13" lengthAdjust="spacing" textLength="8.271" x="471.792" y="1175.3469">1</text><text fill="#000000" font-family="sans-serif" font-size="13" lengthAdjust="spacing" textLength="36.5625" x="442.3552" y="1204.0004">many</text></g><!--SRC=[jLPRRzCm57xFhuZwKeyfqhhB2vegZIP5aTeKqW8F24rPutMHKgVOpc12_7TyYHrVqW92JEeI-nn_vpkVppdjE4nGkoS1PF_3ECsJsIPTPU6F86H_7zw9Hxpwb8cND5uamSz0EiyNgrNUEOht-mjmSMOi9s1YBY_1fRcy0bVcyXfScyiRS2ENvnMYuMFTD3XhzmyGoyqTfFD-3voz3fcRRGBcGUOWS3NvzUPkatJabwkFQVQsJr1adiL9Vh-yIxCD-oJPJEGz3cTrGGWamPO_mpTjLPSLsdL0qQ8Yz5P4dyhGnEP4E5F3ILg9jlhdcVzpKvKyk0f9QOFYYXmAkds2s0gTrF2ve0sUDOZYfguXmu7U7dULaSiE1kJmQmi93R5yUb5vlBfuKS6ujDiMOuWaSxdRLqzPORYbLODq-ZF3sxekujXSQ4L50SKAcgFeY1ghDm-myT9IUfbvARsCSejajH1QK7WwrIX5569KrFAQU9h6iZlRQLdAfzoKpVIenUIf9XOJLpN7wbDtbLjp-Xn5PADnvBQHuVzGN67Pyd30r5U8epgE9sNr2GjX1Lr3OqbMcfmxS15qcSgXONKfCAxAEaURDSLi60Y9nPjVQ7qJgfBJ9QWkJsw_Rs4BRxksdAg-5BlIuQ5fQbWmAKZU8iI3kMN3UIGcg5arm8lhQf0R8JcKpKW3McudM5lmQkveDch-8FWjFpA2akzM2NJoUUFmmTaORY-hqzEErG53GlhAjCEBkxU7hKM83LfhhOViS6jxllgRmO7jRyu_yeSq_hMwjGPE5_xT5VnESMulsSLNY7cW-I01LIR6k5P7gkxCyM1yCZZExaprx4CHN3aJ7UVOY6OMcv2NsBAeb9xdU_OEv03v_2KiyCxy4J1c6jI22tcg3YJGlq16ar7uAeh2qRv0BoDPhe4iMiTa5qpWz1LtZgAfUBet6pW5SDBNAmkNXZSIWu4fQORGmqpFBjEgHlsWqVcM6VIHtN24Wq6yAy9V]--></g></svg>